<svg width="131" height="56" viewBox="0 0 131 56" fill="none" xmlns="http://www.w3.org/2000/svg">
<path d="M70 12.3C66.1 10.1 61.3 10.8 58.1 13.8V12C58.1 11.4 57.7 11 57.1 11C56.5 11 56.1 11.4 56.1 12V16.5C56.1 17.1 56.5 17.5 57.1 17.5H61.6C62.2 17.5 62.6 17.1 62.6 16.5C62.6 15.9 62.2 15.5 61.6 15.5H59.2C60.7 13.9 62.8 13 65 13C69.4 13 73 16.6 73 21C73 25.4 69.4 29 65 29C60.6 29 57 25.4 57 21C57 20.4 56.6 20 56 20C55.4 20 55 20.4 55 21C55 26.5 59.5 31 65 31C68.6 31 71.9 29.1 73.7 26C76.4 21.2 74.8 15.1 70 12.3ZM65 17C64.4 17 64 17.4 64 18V21C64 21.6 64.4 22 65 22H67C67.6 22 68 21.6 68 21C68 20.4 67.6 20 67 20H66V18C66 17.4 65.6 17 65 17Z" fill="black"/>
<path d="M34.6646 45.154C32.8936 45.154 32.0576 44.12 32.0576 42.778C32.0576 42.525 32.0906 42.261 32.1676 42.041H33.6636C33.6196 42.25 33.5976 42.459 33.5976 42.679C33.5976 43.328 33.9056 43.977 34.6756 43.977C35.4566 43.977 35.7426 43.35 35.7426 42.767C35.7426 41.964 35.3356 41.59 34.8076 41.216C34.2356 40.82 33.6416 40.446 33.6416 39.346H35.1926C35.2586 39.874 35.6216 40.138 36.0396 40.457C36.6776 40.941 37.3046 41.524 37.3046 42.745C37.3046 43.988 36.3476 45.154 34.6646 45.154ZM40.8332 47.354C39.0622 47.354 38.1382 46.375 38.1382 44.967C38.1382 44.571 38.2152 44.252 38.3362 43.9H39.8322C39.7442 44.197 39.6892 44.472 39.6892 44.835C39.6892 45.605 40.0082 46.177 40.8332 46.177C41.6912 46.177 41.9882 45.517 41.9882 44.736V42.129C41.9882 41.238 41.6362 40.545 40.8882 40.545C40.1402 40.545 39.8982 41.095 39.8982 41.678C39.8982 41.843 39.9312 42.041 39.9532 42.151H38.4132C38.3802 42.008 38.3472 41.799 38.3472 41.535C38.3472 40.38 38.9522 39.346 40.4922 39.346C41.2072 39.346 41.7242 39.731 41.9662 40.16H41.9882V36.75H43.5502V44.67C43.5502 46.474 42.5602 47.354 40.8332 47.354ZM47.9841 47.354C45.9491 47.354 44.5191 45.77 44.5191 43.372C44.5191 41.238 45.6521 39.742 47.2911 39.412H47.3901C47.3021 39.093 47.2911 38.664 47.2911 38.257H48.6881C48.6881 38.664 48.6771 39.093 48.5891 39.423H48.6881C50.3271 39.742 51.4601 41.238 51.4601 43.372C51.4601 45.781 50.0081 47.354 47.9841 47.354ZM47.9841 46.166C49.2821 46.166 49.8871 45.033 49.8871 43.372C49.8871 41.986 49.5131 40.941 48.6881 40.622L48.5561 40.545C48.6331 40.908 48.7211 41.568 48.7211 42.041V43.537H47.2581V42.03C47.2581 41.557 47.3351 40.93 47.4231 40.545L47.2911 40.611C46.4441 40.941 46.0921 41.997 46.0921 43.372C46.0921 45.022 46.7081 46.166 47.9841 46.166ZM55.5414 45C55.9044 44.208 56.1464 43.482 56.1464 42.327C56.1464 41.381 55.8824 40.523 55.0024 40.523C54.1334 40.523 53.8694 41.381 53.8694 42.327C53.8694 43.482 54.1114 44.208 54.4744 45H52.9454C52.5384 44.23 52.2964 43.493 52.2964 42.272C52.2964 40.6 53.2424 39.346 55.0024 39.346C56.7734 39.346 57.7194 40.6 57.7194 42.272C57.7194 43.493 57.4664 44.23 57.0704 45H55.5414ZM61.2541 47.354C59.5271 47.354 58.5041 46.298 58.5041 45.044C58.5041 44.681 58.5701 44.395 58.7021 44.065H60.2091C60.1211 44.351 60.0661 44.648 60.0661 44.945C60.0661 45.627 60.4841 46.188 61.2761 46.188C62.0461 46.188 62.4311 45.594 62.4311 44.945C62.4311 44.197 62.0461 43.691 61.2761 43.691H60.9131V42.514H61.2541C62.0131 42.514 62.2111 42.085 62.2111 41.546C62.2111 41.106 62.0131 40.523 61.2651 40.523C60.5061 40.523 60.2641 41.04 60.2641 41.612C60.2641 41.733 60.2751 41.854 60.2971 41.986H58.7681C58.7351 41.865 58.7131 41.689 58.7131 41.524C58.7131 40.336 59.6591 39.346 61.2871 39.346C62.8271 39.346 63.7621 40.325 63.7621 41.447C63.7621 42.349 63.3111 42.866 62.7391 43.075V43.119C63.3551 43.339 63.9931 43.878 63.9931 45C63.9931 46.276 62.9261 47.354 61.2541 47.354ZM70.0038 45C70.5318 44.153 70.8178 43.273 70.8178 42.206C70.8178 41.029 70.5208 40.523 69.9378 40.523C69.4868 40.523 69.2888 40.974 69.2888 41.645V43.537H67.8368V41.645C67.8368 40.93 67.6498 40.523 67.2098 40.523C66.6378 40.523 66.3408 41.04 66.3408 42.195C66.3408 43.229 66.6378 44.175 67.1438 45H65.5598C65.0868 44.296 64.7788 43.438 64.7788 42.129C64.7788 40.358 65.5598 39.346 66.9458 39.346C67.7488 39.346 68.2658 39.654 68.5298 40.358H68.5738C68.8488 39.654 69.4538 39.346 70.2018 39.346C71.6098 39.346 72.3798 40.446 72.3798 42.14C72.3798 43.405 72.1048 44.252 71.5988 45H70.0038ZM76.0495 45.154C74.2675 45.154 73.2115 43.966 73.2115 42.261C73.2115 40.732 74.0585 39.621 75.5215 39.412V39.005C75.5215 38.499 75.1915 38.345 74.8395 38.202C74.4105 38.026 73.9705 37.784 73.9705 36.75H75.4225C75.4665 37.245 75.8075 37.432 76.1595 37.619C76.5885 37.839 77.0395 38.059 77.0395 38.84V39.511C78.2165 39.874 78.8875 40.919 78.8875 42.261C78.8875 43.955 77.8315 45.154 76.0495 45.154ZM76.0495 43.977C76.9295 43.977 77.3255 43.174 77.3255 42.261C77.3255 41.337 76.9405 40.545 76.0385 40.545C75.1805 40.545 74.7735 41.337 74.7735 42.261C74.7735 43.163 75.1585 43.977 76.0495 43.977ZM82.3392 47.354C80.5792 47.354 79.6662 46.342 79.6662 44.978C79.6662 44.582 79.7432 44.241 79.8642 43.9H81.3712C81.2832 44.186 81.2282 44.516 81.2282 44.879C81.2282 45.528 81.5362 46.177 82.3392 46.177C83.1752 46.177 83.4722 45.517 83.4722 44.879V41.92C83.4722 41.139 83.2412 40.523 82.4492 40.523C81.7122 40.523 81.4262 41.095 81.4262 41.689C81.4262 41.832 81.4482 42.019 81.4812 42.151H79.9302C79.8972 42.008 79.8642 41.832 79.8642 41.623C79.8642 40.446 80.7662 39.346 82.4492 39.346C84.2312 39.346 85.0342 40.545 85.0342 41.821V44.89C85.0342 46.243 84.0772 47.354 82.3392 47.354ZM88.8219 45.154C87.0399 45.154 85.9839 43.966 85.9839 42.261C85.9839 40.732 86.8309 39.621 88.2939 39.412V39.005C88.2939 38.499 87.9639 38.345 87.6119 38.202C87.1829 38.026 86.7429 37.784 86.7429 36.75H88.1949C88.2389 37.245 88.5799 37.432 88.9319 37.619C89.3609 37.839 89.8119 38.059 89.8119 38.84V39.511C90.9889 39.874 91.6599 40.919 91.6599 42.261C91.6599 43.955 90.6039 45.154 88.8219 45.154ZM88.8219 43.977C89.7019 43.977 90.0979 43.174 90.0979 42.261C90.0979 41.337 89.7129 40.545 88.8109 40.545C87.9529 40.545 87.5459 41.337 87.5459 42.261C87.5459 43.163 87.9309 43.977 88.8219 43.977ZM95.7387 45C96.1017 44.208 96.3437 43.482 96.3437 42.327C96.3437 41.381 96.0797 40.523 95.1997 40.523C94.3307 40.523 94.0667 41.381 94.0667 42.327C94.0667 43.482 94.3087 44.208 94.6717 45H93.1427C92.7357 44.23 92.4937 43.493 92.4937 42.272C92.4937 40.6 93.4397 39.346 95.1997 39.346C96.9707 39.346 97.9167 40.6 97.9167 42.272C97.9167 43.493 97.6637 44.23 97.2677 45H95.7387Z" fill="black"/>
</svg>
