<svg width="100" height="18" viewBox="0 0 100 18" fill="none" xmlns="http://www.w3.org/2000/svg">
<g clip-path="url(#clip0_1_1616)">
<path d="M14.0898 13.0252L10.4476 11.8487C9.8918 13.3501 8.41365 14.5714 6.54526 14.5714C4.96068 14.5714 3.87867 13.2941 3.87867 11.8207C3.87867 9.7479 5.82983 7.82073 8.12393 7.82073C9.60208 7.82073 10.6309 8.96919 10.6841 10.4202L14.5095 9.19328C13.9538 6.39216 11.2931 4.59384 8.25401 4.59384C3.58896 4.59944 0 8.02241 0 12.3473C0 15.6975 2.77301 17.8992 6.22598 17.8992C9.67894 17.8992 12.9013 15.972 14.0898 13.0252Z" fill="#1B0226"/>
<path d="M18.8143 13.5016C18.8143 14.2523 19.5238 14.7004 20.8719 14.7004C21.7174 14.7004 23.0359 14.2018 24.1415 13.3503C23.3788 12.5772 22.3973 12.0226 21.268 12.0226C19.6302 12.0226 18.8143 12.7957 18.8143 13.496V13.5016ZM30.1074 17.5016H26.2523C26.2287 17.1262 26.0927 16.5996 25.8858 16.0506C25.5192 15.1486 24.9338 14.1514 24.1415 13.3503C25.0639 12.65 25.8325 11.6976 25.9863 10.5996C27.0683 11.3223 27.9906 12.2971 28.6765 13.4231C27.967 14.4203 26.9855 15.3223 25.8798 16.0506C24.0351 17.2495 21.8179 18.0002 19.8372 18.0002C16.4315 18.0002 14.9297 15.9273 14.9297 13.8489C14.9297 11.5016 16.8808 9.0982 21.1025 9.0982C22.9472 9.0982 24.6145 9.64722 25.9863 10.5996C26.0099 10.4259 26.0395 10.2747 26.0395 10.101C26.0395 6.82369 19.4174 7.47355 16.6207 8.80128L16.5438 8.75086L16.8868 5.45114C21.8711 3.62481 29.8945 3.87691 29.8945 10.0002C29.8945 11.199 29.4451 12.3755 28.6824 13.4231C29.4215 14.65 29.9241 16.0226 30.1074 17.496V17.5016Z" fill="#1B0226"/>
<path d="M32.85 17.4734L36.705 17.4958L36.8351 17.1709C36.0191 15.972 35.4101 14.2689 35.9896 11.0476L37.9703 0H34.0148L32.7199 7.2493C31.5315 13.8487 31.6911 15.8487 32.85 17.4734Z" fill="#1B0226"/>
<path d="M43.8538 9.2773C44.6993 10.0504 45.7518 10.577 46.9698 10.577C48.6076 10.577 49.4472 9.72548 49.4472 9.0252C49.4472 7.12604 46.0178 7.5238 43.8538 9.2773ZM38.0713 5.42296L41.3705 4.521C41.477 5.14845 41.6898 5.84873 41.9795 6.521C42.3993 7.54621 43.032 8.521 43.8538 9.2717C43.0379 9.94396 42.4052 10.8235 42.216 11.8487C41.1104 11.098 40.1584 10.1232 39.4726 9.0252C40.1052 8.07282 40.9744 7.22688 41.9795 6.5266C43.7474 5.32772 45.9114 4.59943 47.9453 4.59943C51.351 4.59943 53.3258 6.59943 53.3258 8.67226C53.3258 11.0196 51.3747 13.423 47.1531 13.423C45.3083 13.423 43.6173 12.8235 42.2219 11.8487C42.1983 12.0504 42.1687 12.2241 42.1687 12.4258C42.1687 15.7031 49.0037 15.1765 51.8004 13.7255L51.8772 13.7759L51.3747 16.8235C46.5204 18.8963 38.3433 18.3977 38.3433 12.6218C38.3433 11.3221 38.7631 10.0952 39.4785 9.0196C38.7158 7.89355 38.2368 6.64425 38.0772 5.41735L38.0713 5.42296Z" fill="#1B0226"/>
<path d="M57.8372 4.4986L54.4611 5.5014L54.331 5.82633C55.5963 7.62465 55.2297 9.84874 54.9636 11.2997L53.8816 17.5014H57.8372L59.0492 10.6274C59.6819 7.0028 64.3529 7.0028 63.7202 10.8291L62.6146 17.5014H66.5701L67.6521 10.902C68.338 6.77871 65.9374 4.59944 62.9043 4.59944C61.4557 4.59944 60.0307 5.19888 58.8127 6.2521C58.5999 5.57983 58.2865 4.97479 57.8372 4.5042V4.4986Z" fill="#1B0226"/>
<path d="M72.9557 11.9776C72.9557 9.90477 74.6467 7.82634 76.8876 7.82634C78.5786 7.82634 79.4478 9.12606 79.4478 10.577C79.4478 12.4538 78.0997 14.577 75.5454 14.577C73.9904 14.577 72.9616 13.451 72.9616 11.9776H72.9557ZM80.5002 17.5014H84.302L84.4321 17.2997C83.9059 16.3474 83.2732 14.6275 83.2732 12.6275C83.2732 12.1289 83.2969 11.6023 83.4033 11.0532L85.384 0.00561523H81.4285L80.3761 5.85435C79.3473 5.03082 77.9755 4.65548 76.6807 4.65548C72.7784 4.65548 69.1894 7.70309 69.1894 12.5042C69.1894 15.8544 71.72 17.9048 74.6526 17.9048C76.6038 17.9048 78.6377 17.1037 79.7434 15.6023C79.903 16.2521 80.1632 16.902 80.5061 17.5014H80.5002Z" fill="#1B0226"/>
<path d="M89.2568 11.9776C89.2568 9.90475 91.208 7.82632 93.502 7.82632C95.0334 7.82632 96.0622 9.05321 96.0622 10.549C96.0622 12.549 94.318 14.5714 91.9175 14.5714C90.3329 14.5714 89.2509 13.4454 89.2509 11.972L89.2568 11.9776ZM91.61 17.8991C96.1213 17.8991 100 14.7507 100 10.2969C100 6.87394 97.0437 4.59943 93.644 4.59943C88.973 4.59943 85.384 8.17366 85.384 12.4986C85.384 15.8487 88.157 17.8991 91.61 17.8991Z" fill="#1B0226"/>
</g>
<defs>
<clipPath id="clip0_1_1616">
<rect width="100" height="18" fill="white"/>
</clipPath>
</defs>
</svg>
