<svg width="52" height="52" viewBox="0 0 52 52" fill="none" xmlns="http://www.w3.org/2000/svg">
<g filter="url(#filter0_d_1_1624)">
<rect x="10" y="8" width="32" height="32" rx="16" fill="white"/>
<path d="M27.41 24L31.71 19.71C31.8983 19.5217 32.0041 19.2663 32.0041 19C32.0041 18.7337 31.8983 18.4783 31.71 18.29C31.5217 18.1017 31.2663 17.9959 31 17.9959C30.7337 17.9959 30.4783 18.1017 30.29 18.29L26 22.59L21.71 18.29C21.5217 18.1017 21.2663 17.9959 21 17.9959C20.7337 17.9959 20.4783 18.1017 20.29 18.29C20.1017 18.4783 19.9959 18.7337 19.9959 19C19.9959 19.2663 20.1017 19.5217 20.29 19.71L24.59 24L20.29 28.29C20.1963 28.383 20.1219 28.4936 20.0711 28.6154C20.0203 28.7373 19.9942 28.868 19.9942 29C19.9942 29.132 20.0203 29.2627 20.0711 29.3846C20.1219 29.5064 20.1963 29.617 20.29 29.71C20.383 29.8037 20.4936 29.8781 20.6154 29.9289C20.7373 29.9797 20.868 30.0058 21 30.0058C21.132 30.0058 21.2627 29.9797 21.3846 29.9289C21.5064 29.8781 21.617 29.8037 21.71 29.71L26 25.41L30.29 29.71C30.383 29.8037 30.4936 29.8781 30.6154 29.9289C30.7373 29.9797 30.868 30.0058 31 30.0058C31.132 30.0058 31.2627 29.9797 31.3846 29.9289C31.5064 29.8781 31.617 29.8037 31.71 29.71C31.8037 29.617 31.8781 29.5064 31.9289 29.3846C31.9797 29.2627 32.0058 29.132 32.0058 29C32.0058 28.868 31.9797 28.7373 31.9289 28.6154C31.8781 28.4936 31.8037 28.383 31.71 28.29L27.41 24Z" fill="#09101D"/>
</g>
<defs>
<filter id="filter0_d_1_1624" x="0" y="0" width="52" height="52" filterUnits="userSpaceOnUse" color-interpolation-filters="sRGB">
<feFlood flood-opacity="0" result="BackgroundImageFix"/>
<feColorMatrix in="SourceAlpha" type="matrix" values="0 0 0 0 0 0 0 0 0 0 0 0 0 0 0 0 0 0 127 0" result="hardAlpha"/>
<feOffset dy="2"/>
<feGaussianBlur stdDeviation="5"/>
<feColorMatrix type="matrix" values="0 0 0 0 0 0 0 0 0 0 0 0 0 0 0 0 0 0 0.1 0"/>
<feBlend mode="normal" in2="BackgroundImageFix" result="effect1_dropShadow_1_1624"/>
<feBlend mode="normal" in="SourceGraphic" in2="effect1_dropShadow_1_1624" result="shape"/>
</filter>
</defs>
</svg>
