<svg width="131" height="56" viewBox="0 0 131 56" fill="none" xmlns="http://www.w3.org/2000/svg">
<path d="M72.6667 17L66.6667 11.74C66.1166 11.2481 65.4046 10.9761 64.6667 10.9761C63.9287 10.9761 63.2167 11.2481 62.6667 11.74L56.6667 17C56.349 17.2841 56.0956 17.6326 55.9231 18.0223C55.7507 18.4119 55.6633 18.8339 55.6667 19.26V28C55.6667 28.7957 55.9827 29.5587 56.5453 30.1213C57.1079 30.6839 57.871 31 58.6667 31H70.6667C71.4623 31 72.2254 30.6839 72.788 30.1213C73.3506 29.5587 73.6667 28.7957 73.6667 28V19.25C73.6686 18.8256 73.5805 18.4055 73.4081 18.0177C73.2357 17.6298 72.983 17.283 72.6667 17ZM66.6667 29H62.6667V24C62.6667 23.7348 62.772 23.4804 62.9596 23.2929C63.1471 23.1054 63.4014 23 63.6667 23H65.6667C65.9319 23 66.1862 23.1054 66.3738 23.2929C66.5613 23.4804 66.6667 23.7348 66.6667 24V29ZM71.6667 28C71.6667 28.2652 71.5613 28.5196 71.3738 28.7071C71.1862 28.8946 70.9319 29 70.6667 29H68.6667V24C68.6667 23.2044 68.3506 22.4413 67.788 21.8787C67.2254 21.3161 66.4623 21 65.6667 21H63.6667C62.871 21 62.1079 21.3161 61.5453 21.8787C60.9827 22.4413 60.6667 23.2044 60.6667 24V29H58.6667C58.4014 29 58.1471 28.8946 57.9596 28.7071C57.772 28.5196 57.6667 28.2652 57.6667 28V19.25C57.6668 19.108 57.6973 18.9677 57.7559 18.8384C57.8145 18.7091 57.9 18.5937 58.0067 18.5L64.0067 13.25C64.1891 13.0897 64.4238 13.0013 64.6667 13.0013C64.9096 13.0013 65.1442 13.0897 65.3267 13.25L71.3267 18.5C71.4333 18.5937 71.5188 18.7091 71.5774 18.8384C71.6361 18.9677 71.6665 19.108 71.6667 19.25V28Z" fill="#64748B"/>
<path d="M43.3116 45.154C41.4306 45.154 40.5066 43.944 40.5066 42.25C40.5066 40.479 41.4526 39.434 42.8606 39.434C43.5976 39.434 44.2356 39.731 44.5766 40.237H44.5986V39.137C44.5986 38.268 44.1806 37.762 43.4326 37.762C42.7616 37.762 42.2776 38.202 42.2776 38.73H40.7486C40.7486 37.63 41.6286 36.596 43.4326 36.596C45.2586 36.596 46.1606 37.652 46.1606 39.038V42.283C46.1606 43.966 45.1926 45.154 43.3116 45.154ZM43.3116 43.977C44.1366 43.977 44.6536 43.306 44.6536 42.316C44.6536 41.194 44.1586 40.6 43.3336 40.6C42.4976 40.6 42.0686 41.249 42.0686 42.316C42.0686 43.306 42.5086 43.977 43.3116 43.977ZM53.4157 45C53.9327 44.153 54.2187 43.273 54.2187 42.184C54.2187 41.062 53.9657 40.534 53.3937 40.534C52.8657 40.534 52.6017 40.919 52.6017 41.623V42.25C52.6017 43.889 51.7327 45.154 49.8627 45.154C47.9817 45.154 47.1237 43.878 47.1237 42.25C47.1237 40.655 48.0367 39.346 49.7967 39.346C50.6437 39.346 51.3147 39.566 51.8097 40.38H51.8537C52.2497 39.566 52.8327 39.357 53.5697 39.357C54.9558 39.357 55.7808 40.413 55.7808 42.173C55.7808 43.416 55.5057 44.252 54.9997 45H53.4157ZM49.8627 43.977C50.6987 43.977 51.0617 43.218 51.0617 42.25C51.0617 41.271 50.7097 40.523 49.8517 40.523C49.0267 40.523 48.6857 41.282 48.6857 42.25C48.6857 43.207 49.0267 43.977 49.8627 43.977ZM59.2048 45.154C57.4338 45.154 56.5978 44.12 56.5978 42.778C56.5978 42.525 56.6308 42.261 56.7078 42.041H58.2038C58.1598 42.25 58.1378 42.459 58.1378 42.679C58.1378 43.328 58.4458 43.977 59.2158 43.977C59.9968 43.977 60.2828 43.35 60.2828 42.767C60.2828 41.964 59.8758 41.59 59.3478 41.216C58.7758 40.82 58.1818 40.446 58.1818 39.346H59.7328C59.7988 39.874 60.1618 40.138 60.5798 40.457C61.2178 40.941 61.8448 41.524 61.8448 42.745C61.8448 43.988 60.8878 45.154 59.2048 45.154ZM65.3734 47.354C63.6464 47.354 62.6234 46.298 62.6234 45.044C62.6234 44.681 62.6894 44.395 62.8214 44.065H64.3284C64.2404 44.351 64.1854 44.648 64.1854 44.945C64.1854 45.627 64.6034 46.188 65.3954 46.188C66.1654 46.188 66.5504 45.594 66.5504 44.945C66.5504 44.197 66.1654 43.691 65.3954 43.691H65.0324V42.514H65.3734C66.1324 42.514 66.3304 42.085 66.3304 41.546C66.3304 41.106 66.1324 40.523 65.3844 40.523C64.6254 40.523 64.3834 41.04 64.3834 41.612C64.3834 41.733 64.3944 41.854 64.4164 41.986H62.8874C62.8544 41.865 62.8324 41.689 62.8324 41.524C62.8324 40.336 63.7784 39.346 65.4064 39.346C66.9464 39.346 67.8814 40.325 67.8814 41.447C67.8814 42.349 67.4304 42.866 66.8584 43.075V43.119C67.4744 43.339 68.1124 43.878 68.1124 45C68.1124 46.276 67.0454 47.354 65.3734 47.354ZM71.4832 45.154C69.7122 45.154 68.8762 44.12 68.8762 42.778C68.8762 42.525 68.9092 42.261 68.9862 42.041H70.4822C70.4382 42.25 70.4162 42.459 70.4162 42.679C70.4162 43.328 70.7242 43.977 71.4942 43.977C72.2752 43.977 72.5612 43.35 72.5612 42.767C72.5612 41.964 72.1542 41.59 71.6262 41.216C71.0542 40.82 70.4602 40.446 70.4602 39.346H72.0112C72.0772 39.874 72.4402 40.138 72.8582 40.457C73.4962 40.941 74.1232 41.524 74.1232 42.745C74.1232 43.988 73.1662 45.154 71.4832 45.154ZM80.1928 45C80.7208 44.153 80.9958 43.273 80.9958 42.173C80.9958 41.007 80.6988 40.545 80.1268 40.545C79.6758 40.545 79.4778 40.996 79.4778 41.667V43.537H78.0258V41.667C78.0258 40.952 77.8388 40.545 77.3988 40.545C76.8268 40.545 76.5298 41.029 76.5298 42.195C76.5298 43.229 76.8268 44.175 77.3328 45H75.7488C75.2648 44.296 74.9568 43.24 74.9568 41.513C74.9568 38.818 76.2438 37.674 78.1248 37.289L79.1258 37.08C79.3678 37.025 79.5328 36.882 79.5878 36.75H81.1718C81.0838 37.597 80.6328 38.059 79.5108 38.29L78.5208 38.488C77.5088 38.686 76.4308 38.994 76.1448 40.072H76.1778C76.5078 39.577 76.9698 39.368 77.4538 39.368C78.1248 39.368 78.4768 39.731 78.7188 40.347H78.7628C79.0048 39.731 79.6648 39.368 80.3798 39.368C81.7878 39.368 82.5688 40.49 82.5688 42.14C82.5688 43.405 82.2938 44.252 81.7878 45H80.1928ZM86.6451 45C87.0081 44.208 87.2501 43.482 87.2501 42.327C87.2501 41.381 86.9861 40.523 86.1061 40.523C85.2371 40.523 84.9731 41.381 84.9731 42.327C84.9731 43.482 85.2151 44.208 85.5781 45H84.0491C83.6421 44.23 83.4001 43.493 83.4001 42.272C83.4001 40.6 84.3461 39.346 86.1061 39.346C87.8771 39.346 88.8231 40.6 88.8231 42.272C88.8231 43.493 88.5701 44.23 88.1741 45H86.6451Z" fill="#64748B"/>
</svg>
