<svg width="390" height="52" viewBox="0 0 390 52" fill="none" xmlns="http://www.w3.org/2000/svg">
<g filter="url(#filter0_bi_1_1662)">
<rect width="393" height="52" fill="#999999" fill-opacity="0.94"/>
<rect width="393" height="52" fill="#5C5C5C" style="mix-blend-mode:color-dodge"/>
<rect x="127" y="40" width="139" height="5" rx="2.5" fill="black"/>
<g clip-path="url(#clip0_1_1662)">
<path d="M154.673 23.5H159.552C160.221 23.5 160.549 23.1712 160.549 22.4434V18.6752C160.549 18.0229 160.28 17.6887 159.725 17.6348V16.3571C159.725 14.4326 158.452 13.5 157.116 13.5C155.773 13.5 154.501 14.4326 154.501 16.3571V17.6563C153.989 17.7372 153.676 18.066 153.676 18.6752V22.4434C153.676 23.1712 154.005 23.5 154.673 23.5ZM155.374 16.2547C155.374 15.004 156.172 14.3356 157.116 14.3356C158.054 14.3356 158.851 15.004 158.851 16.2547V17.624L155.374 17.6348V16.2547Z" fill="#7F7F83"/>
<path d="M170.672 23.1299C169.983 23.1299 169.386 22.9727 168.881 22.6582C168.375 22.3438 167.983 21.8994 167.705 21.3252C167.427 20.751 167.288 20.0742 167.288 19.2949V19.2812C167.288 18.5156 167.424 17.8503 167.698 17.2852C167.976 16.7201 168.368 16.2826 168.874 15.9727C169.38 15.6582 169.977 15.501 170.665 15.501C171.262 15.501 171.777 15.6058 172.21 15.8154C172.643 16.0251 172.989 16.3076 173.249 16.6631C173.508 17.014 173.675 17.4082 173.748 17.8457L173.755 17.8867H172.572L172.565 17.8662C172.474 17.5016 172.267 17.1917 171.943 16.9365C171.619 16.6813 171.193 16.5537 170.665 16.5537C170.223 16.5537 169.84 16.6654 169.516 16.8887C169.193 17.112 168.942 17.4287 168.764 17.8389C168.591 18.2445 168.505 18.7253 168.505 19.2812V19.2949C168.505 19.86 168.593 20.3522 168.771 20.7715C168.949 21.1862 169.2 21.5075 169.523 21.7354C169.847 21.9632 170.227 22.0771 170.665 22.0771C171.161 22.0771 171.567 21.9701 171.882 21.7559C172.196 21.5417 172.422 21.2295 172.558 20.8193L172.572 20.7783L173.748 20.7715L173.734 20.8467C173.634 21.2887 173.456 21.6829 173.201 22.0293C172.946 22.3711 172.608 22.64 172.189 22.8359C171.77 23.0319 171.264 23.1299 170.672 23.1299ZM177.654 23.1299C177.189 23.1299 176.77 23.041 176.397 22.8633C176.027 22.6855 175.733 22.4326 175.515 22.1045C175.3 21.7764 175.193 21.389 175.193 20.9424V20.9287C175.193 20.4912 175.298 20.1175 175.508 19.8076C175.717 19.4932 176.023 19.2471 176.424 19.0693C176.825 18.8916 177.31 18.7868 177.88 18.7549L180.587 18.5908V19.541L178.023 19.7051C177.463 19.737 177.053 19.8532 176.793 20.0537C176.538 20.2542 176.41 20.5368 176.41 20.9014V20.915C176.41 21.2887 176.551 21.5804 176.834 21.79C177.117 21.9951 177.472 22.0977 177.9 22.0977C178.306 22.0977 178.666 22.0179 178.98 21.8584C179.295 21.6943 179.541 21.4733 179.719 21.1953C179.901 20.9173 179.992 20.6029 179.992 20.252V17.9551C179.992 17.4993 179.853 17.153 179.575 16.916C179.302 16.6745 178.889 16.5537 178.338 16.5537C177.896 16.5537 177.534 16.6335 177.251 16.793C176.968 16.9479 176.779 17.1689 176.684 17.4561L176.677 17.4766H175.487L175.494 17.4355C175.558 17.0482 175.717 16.7109 175.973 16.4238C176.232 16.1322 176.567 15.9066 176.978 15.7471C177.388 15.583 177.855 15.501 178.379 15.501C178.98 15.501 179.489 15.599 179.903 15.7949C180.323 15.9909 180.639 16.2734 180.854 16.6426C181.072 17.0072 181.182 17.4447 181.182 17.9551V23H179.992V21.9131H179.883C179.728 22.1729 179.539 22.3939 179.315 22.5762C179.097 22.7585 178.848 22.8975 178.57 22.9932C178.292 23.0843 177.987 23.1299 177.654 23.1299ZM183.564 23V12.7051H184.753V23H183.564ZM190.184 23.1299C189.482 23.1299 188.879 22.9749 188.373 22.665C187.871 22.3551 187.484 21.9176 187.211 21.3525C186.942 20.7829 186.807 20.113 186.807 19.3428V19.3359C186.807 18.5749 186.942 17.9072 187.211 17.333C187.484 16.7588 187.869 16.3099 188.366 15.9863C188.863 15.6628 189.444 15.501 190.109 15.501C190.779 15.501 191.353 15.6559 191.832 15.9658C192.315 16.2757 192.684 16.7087 192.939 17.2646C193.199 17.8161 193.329 18.4587 193.329 19.1924V19.6572H187.423V18.707H192.72L192.133 19.5752V19.1035C192.133 18.5247 192.046 18.0485 191.873 17.6748C191.7 17.3011 191.46 17.0231 191.155 16.8408C190.85 16.654 190.499 16.5605 190.102 16.5605C189.706 16.5605 189.35 16.6585 189.036 16.8545C188.726 17.0459 188.48 17.3307 188.298 17.709C188.115 18.0872 188.024 18.5521 188.024 19.1035V19.5752C188.024 20.0993 188.113 20.5482 188.291 20.9219C188.468 21.291 188.721 21.5758 189.05 21.7764C189.378 21.9723 189.765 22.0703 190.212 22.0703C190.544 22.0703 190.834 22.0247 191.08 21.9336C191.326 21.8424 191.529 21.7262 191.688 21.585C191.848 21.4437 191.959 21.3001 192.023 21.1543L192.051 21.0928H193.24L193.226 21.1475C193.163 21.3981 193.049 21.6419 192.885 21.8789C192.725 22.1113 192.518 22.3232 192.262 22.5146C192.007 22.7015 191.704 22.8519 191.353 22.9658C191.007 23.0752 190.617 23.1299 190.184 23.1299ZM195.315 23V15.6309H196.504V16.7383H196.613C196.8 16.3464 197.069 16.0433 197.42 15.8291C197.771 15.6104 198.218 15.501 198.76 15.501C199.589 15.501 200.225 15.738 200.667 16.2119C201.114 16.6813 201.337 17.3535 201.337 18.2285V23H200.148V18.5156C200.148 17.8503 200.006 17.3581 199.724 17.0391C199.446 16.7155 199.013 16.5537 198.425 16.5537C198.033 16.5537 197.693 16.638 197.406 16.8066C197.119 16.9753 196.896 17.2145 196.736 17.5244C196.581 17.8343 196.504 18.2057 196.504 18.6387V23H195.315ZM206.351 23.1299C205.731 23.1299 205.189 22.9727 204.724 22.6582C204.259 22.3438 203.899 21.9017 203.644 21.332C203.389 20.7578 203.261 20.0879 203.261 19.3223V19.3086C203.261 18.5384 203.389 17.8685 203.644 17.2988C203.899 16.7292 204.257 16.2871 204.717 15.9727C205.182 15.6582 205.727 15.501 206.351 15.501C206.688 15.501 207.005 15.5557 207.301 15.665C207.602 15.7699 207.869 15.918 208.101 16.1094C208.333 16.3008 208.516 16.5286 208.648 16.793H208.757V12.7051H209.947V23H208.757V21.8242H208.648C208.498 22.0977 208.308 22.3324 208.081 22.5283C207.853 22.7197 207.593 22.8678 207.301 22.9727C207.01 23.0775 206.693 23.1299 206.351 23.1299ZM206.624 22.0771C207.071 22.0771 207.456 21.9655 207.78 21.7422C208.103 21.5189 208.352 21.2021 208.525 20.792C208.698 20.3773 208.785 19.8874 208.785 19.3223V19.3086C208.785 18.7389 208.698 18.249 208.525 17.8389C208.352 17.4287 208.103 17.112 207.78 16.8887C207.456 16.6654 207.071 16.5537 206.624 16.5537C206.178 16.5537 205.793 16.6654 205.469 16.8887C205.15 17.1074 204.904 17.4219 204.731 17.832C204.562 18.2422 204.478 18.7344 204.478 19.3086V19.3223C204.478 19.8919 204.562 20.3841 204.731 20.7988C204.904 21.209 205.15 21.5257 205.469 21.749C205.793 21.9678 206.178 22.0771 206.624 22.0771ZM215.398 23.1299C214.701 23.1299 214.097 22.9772 213.587 22.6719C213.081 22.362 212.689 21.9222 212.411 21.3525C212.138 20.7829 212.001 20.1061 212.001 19.3223V19.3086C212.001 18.5202 212.138 17.8411 212.411 17.2715C212.689 16.7018 213.081 16.2643 213.587 15.959C214.097 15.6536 214.701 15.501 215.398 15.501C216.1 15.501 216.704 15.6536 217.21 15.959C217.716 16.2643 218.105 16.7018 218.379 17.2715C218.657 17.8411 218.796 18.5202 218.796 19.3086V19.3223C218.796 20.1061 218.657 20.7829 218.379 21.3525C218.105 21.9222 217.716 22.362 217.21 22.6719C216.704 22.9772 216.1 23.1299 215.398 23.1299ZM215.398 22.0771C215.863 22.0771 216.257 21.9678 216.581 21.749C216.904 21.5303 217.151 21.2158 217.319 20.8057C217.492 20.3955 217.579 19.901 217.579 19.3223V19.3086C217.579 18.7253 217.492 18.2285 217.319 17.8184C217.151 17.4082 216.904 17.096 216.581 16.8818C216.257 16.6631 215.863 16.5537 215.398 16.5537C214.933 16.5537 214.539 16.6631 214.216 16.8818C213.892 17.096 213.644 17.4082 213.471 17.8184C213.302 18.2285 213.218 18.7253 213.218 19.3086V19.3223C213.218 19.901 213.302 20.3955 213.471 20.8057C213.644 21.2158 213.892 21.5303 214.216 21.749C214.539 21.9678 214.933 22.0771 215.398 22.0771ZM221.615 23.0684C221.374 23.0684 221.164 22.9818 220.986 22.8086C220.813 22.6309 220.727 22.4212 220.727 22.1797C220.727 21.9336 220.813 21.724 220.986 21.5508C221.164 21.3776 221.374 21.291 221.615 21.291C221.861 21.291 222.071 21.3776 222.244 21.5508C222.417 21.724 222.504 21.9336 222.504 22.1797C222.504 22.4212 222.417 22.6309 222.244 22.8086C222.071 22.9818 221.861 23.0684 221.615 23.0684ZM227.703 25.5977C227.11 25.5977 226.593 25.5133 226.151 25.3447C225.709 25.1807 225.356 24.946 225.091 24.6406C224.832 24.3398 224.67 23.9889 224.606 23.5879L224.62 23.5811H225.85L225.857 23.5879C225.921 23.8659 226.112 24.0938 226.431 24.2715C226.75 24.4538 227.174 24.5449 227.703 24.5449C228.363 24.5449 228.878 24.3945 229.248 24.0938C229.621 23.7975 229.808 23.3783 229.808 22.8359V21.3457H229.699C229.544 21.6146 229.35 21.8447 229.118 22.0361C228.885 22.2275 228.623 22.3734 228.332 22.4736C228.04 22.5693 227.725 22.6172 227.388 22.6172C226.755 22.6172 226.206 22.4668 225.741 22.166C225.28 21.8607 224.925 21.4414 224.674 20.9082C224.424 20.375 224.298 19.7643 224.298 19.0762V19.0625C224.298 18.3743 224.424 17.7637 224.674 17.2305C224.93 16.6927 225.29 16.2712 225.754 15.9658C226.219 15.6559 226.773 15.501 227.416 15.501C227.762 15.501 228.081 15.5557 228.373 15.665C228.664 15.7744 228.922 15.9294 229.145 16.1299C229.373 16.3304 229.562 16.5697 229.712 16.8477H229.794V15.6309H230.984V22.8975C230.984 23.4443 230.849 23.9206 230.581 24.3262C230.316 24.7318 229.938 25.0439 229.446 25.2627C228.954 25.486 228.373 25.5977 227.703 25.5977ZM227.648 21.5645C228.104 21.5645 228.493 21.4596 228.817 21.25C229.145 21.0358 229.396 20.7419 229.569 20.3682C229.747 19.9945 229.835 19.5638 229.835 19.0762V19.0625C229.835 18.5749 229.747 18.1419 229.569 17.7637C229.396 17.3854 229.145 17.0892 228.817 16.875C228.493 16.6608 228.104 16.5537 227.648 16.5537C227.192 16.5537 226.805 16.6608 226.486 16.875C226.171 17.0892 225.93 17.3854 225.761 17.7637C225.597 18.1419 225.515 18.5749 225.515 19.0625V19.0762C225.515 19.5638 225.597 19.9945 225.761 20.3682C225.93 20.7419 226.171 21.0358 226.486 21.25C226.805 21.4596 227.192 21.5645 227.648 21.5645ZM236.347 23.1299C235.645 23.1299 235.041 22.9749 234.535 22.665C234.034 22.3551 233.646 21.9176 233.373 21.3525C233.104 20.7829 232.97 20.113 232.97 19.3428V19.3359C232.97 18.5749 233.104 17.9072 233.373 17.333C233.646 16.7588 234.031 16.3099 234.528 15.9863C235.025 15.6628 235.606 15.501 236.271 15.501C236.941 15.501 237.516 15.6559 237.994 15.9658C238.477 16.2757 238.846 16.7087 239.101 17.2646C239.361 17.8161 239.491 18.4587 239.491 19.1924V19.6572H233.585V18.707H238.883L238.295 19.5752V19.1035C238.295 18.5247 238.208 18.0485 238.035 17.6748C237.862 17.3011 237.623 17.0231 237.317 16.8408C237.012 16.654 236.661 16.5605 236.265 16.5605C235.868 16.5605 235.513 16.6585 235.198 16.8545C234.888 17.0459 234.642 17.3307 234.46 17.709C234.278 18.0872 234.186 18.5521 234.186 19.1035V19.5752C234.186 20.0993 234.275 20.5482 234.453 20.9219C234.631 21.291 234.884 21.5758 235.212 21.7764C235.54 21.9723 235.927 22.0703 236.374 22.0703C236.707 22.0703 236.996 22.0247 237.242 21.9336C237.488 21.8424 237.691 21.7262 237.85 21.585C238.01 21.4437 238.122 21.3001 238.185 21.1543L238.213 21.0928H239.402L239.389 21.1475C239.325 21.3981 239.211 21.6419 239.047 21.8789C238.887 22.1113 238.68 22.3232 238.425 22.5146C238.169 22.7015 237.866 22.8519 237.516 22.9658C237.169 23.0752 236.78 23.1299 236.347 23.1299Z" fill="black"/>
</g>
</g>
<defs>
<filter id="filter0_bi_1_1662" x="-20" y="-20" width="433" height="92" filterUnits="userSpaceOnUse" color-interpolation-filters="sRGB">
<feFlood flood-opacity="0" result="BackgroundImageFix"/>
<feGaussianBlur in="BackgroundImageFix" stdDeviation="10"/>
<feComposite in2="SourceAlpha" operator="in" result="effect1_backgroundBlur_1_1662"/>
<feBlend mode="normal" in="SourceGraphic" in2="effect1_backgroundBlur_1_1662" result="shape"/>
<feColorMatrix in="SourceAlpha" type="matrix" values="0 0 0 0 0 0 0 0 0 0 0 0 0 0 0 0 0 0 127 0" result="hardAlpha"/>
<feOffset dy="0.33"/>
<feComposite in2="hardAlpha" operator="arithmetic" k2="-1" k3="1"/>
<feColorMatrix type="matrix" values="0 0 0 0 0 0 0 0 0 0 0 0 0 0 0 0 0 0 0.3 0"/>
<feBlend mode="normal" in2="shape" result="effect2_innerShadow_1_1662"/>
</filter>
<clipPath id="clip0_1_1662">
<rect width="86.8733" height="17" fill="white" transform="translate(153.676 10)"/>
</clipPath>
</defs>
</svg>
