<svg width="130" height="56" viewBox="0 0 130 56" fill="none" xmlns="http://www.w3.org/2000/svg">
<path d="M65.6334 22.22C66.167 21.7581 66.5949 21.1869 66.8882 20.545C67.1816 19.9032 67.3334 19.2057 67.3334 18.5C67.3334 17.1739 66.8066 15.9021 65.8689 14.9645C64.9312 14.0268 63.6595 13.5 62.3334 13.5C61.0073 13.5 59.7355 14.0268 58.7978 14.9645C57.8602 15.9021 57.3334 17.1739 57.3334 18.5C57.3334 19.2057 57.4852 19.9032 57.7785 20.545C58.0718 21.1869 58.4998 21.7581 59.0334 22.22C57.6335 22.8539 56.4458 23.8775 55.6124 25.1685C54.7789 26.4596 54.3348 27.9633 54.3334 29.5C54.3334 29.7652 54.4387 30.0196 54.6263 30.2071C54.8138 30.3946 55.0682 30.5 55.3334 30.5C55.5986 30.5 55.8529 30.3946 56.0405 30.2071C56.228 30.0196 56.3334 29.7652 56.3334 29.5C56.3334 27.9087 56.9655 26.3826 58.0907 25.2574C59.216 24.1321 60.7421 23.5 62.3334 23.5C63.9247 23.5 65.4508 24.1321 66.576 25.2574C67.7012 26.3826 68.3334 27.9087 68.3334 29.5C68.3334 29.7652 68.4387 30.0196 68.6263 30.2071C68.8138 30.3946 69.0682 30.5 69.3334 30.5C69.5986 30.5 69.8529 30.3946 70.0405 30.2071C70.228 30.0196 70.3334 29.7652 70.3334 29.5C70.3319 27.9633 69.8879 26.4596 69.0544 25.1685C68.2209 23.8775 67.0332 22.8539 65.6334 22.22ZM62.3334 21.5C61.74 21.5 61.16 21.3241 60.6667 20.9944C60.1733 20.6648 59.7888 20.1962 59.5617 19.6481C59.3347 19.0999 59.2753 18.4967 59.391 17.9147C59.5068 17.3328 59.7925 16.7982 60.2121 16.3787C60.6316 15.9591 61.1662 15.6734 61.7481 15.5576C62.33 15.4419 62.9332 15.5013 63.4814 15.7284C64.0296 15.9554 64.4981 16.3399 64.8278 16.8333C65.1574 17.3266 65.3334 17.9067 65.3334 18.5C65.3334 19.2956 65.0173 20.0587 64.4547 20.6213C63.8921 21.1839 63.129 21.5 62.3334 21.5ZM72.0734 21.82C72.7133 21.0993 73.1314 20.2091 73.2772 19.2563C73.423 18.3036 73.2903 17.3291 72.8951 16.45C72.5 15.5709 71.8592 14.8248 71.0498 14.3014C70.2405 13.7781 69.2972 13.4997 68.3334 13.5C68.0682 13.5 67.8138 13.6054 67.6263 13.7929C67.4387 13.9804 67.3334 14.2348 67.3334 14.5C67.3334 14.7652 67.4387 15.0196 67.6263 15.2071C67.8138 15.3946 68.0682 15.5 68.3334 15.5C69.129 15.5 69.8921 15.8161 70.4547 16.3787C71.0173 16.9413 71.3334 17.7044 71.3334 18.5C71.332 19.0252 71.1927 19.5409 70.9294 19.9954C70.6662 20.4499 70.2882 20.8274 69.8334 21.09C69.6851 21.1755 69.5613 21.2977 69.4737 21.4447C69.3862 21.5918 69.3379 21.7589 69.3334 21.93C69.3292 22.0998 69.3683 22.2678 69.447 22.4183C69.5258 22.5687 69.6415 22.6967 69.7834 22.79L70.1734 23.05L70.3034 23.12C71.5088 23.6917 72.5257 24.596 73.2344 25.7263C73.943 26.8566 74.3139 28.1659 74.3034 29.5C74.3034 29.7652 74.4087 30.0196 74.5963 30.2071C74.7838 30.3946 75.0382 30.5 75.3034 30.5C75.5686 30.5 75.8229 30.3946 76.0105 30.2071C76.198 30.0196 76.3034 29.7652 76.3034 29.5C76.3115 27.9654 75.9272 26.4543 75.1868 25.1101C74.4465 23.7659 73.3747 22.6333 72.0734 21.82Z" fill="#64748B"/>
<path d="M40.4745 46.154C38.7475 46.154 37.7245 45.142 37.7245 43.844C37.7245 43.525 37.7905 43.25 37.8785 42.964H39.3745C39.3085 43.239 39.2755 43.481 39.2755 43.734C39.2755 44.394 39.7045 44.977 40.4965 44.977C41.2665 44.977 41.6405 44.339 41.6405 43.624C41.6405 42.799 41.2555 42.238 40.5185 42.238H40.0675V41.05H40.5845C41.0795 41.05 41.4095 40.819 41.4095 40.39C41.4095 39.895 40.9585 39.653 40.4635 39.488C39.7925 39.257 39.0995 38.938 39.0995 37.75H40.6285C40.6615 38.245 41.1125 38.476 41.6405 38.707C42.2895 38.982 42.9825 39.356 42.9825 40.258C42.9825 40.94 42.6525 41.347 41.9595 41.611V41.655C42.5755 41.875 43.2135 42.568 43.2135 43.69C43.2135 45.098 42.1465 46.154 40.4745 46.154ZM49.2882 46C49.8162 45.153 50.0912 44.273 50.0912 43.173C50.0912 42.007 49.7942 41.545 49.2222 41.545C48.7712 41.545 48.5732 41.996 48.5732 42.667V44.537H47.1212V42.667C47.1212 41.952 46.9342 41.545 46.4942 41.545C45.9222 41.545 45.6252 42.029 45.6252 43.195C45.6252 44.229 45.9222 45.175 46.4282 46H44.8442C44.3602 45.296 44.0522 44.24 44.0522 42.513C44.0522 39.818 45.3392 38.674 47.2202 38.289L48.2212 38.08C48.4632 38.025 48.6282 37.882 48.6832 37.75H50.2672C50.1792 38.597 49.7282 39.059 48.6062 39.29L47.6162 39.488C46.6042 39.686 45.5262 39.994 45.2402 41.072H45.2732C45.6032 40.577 46.0652 40.368 46.5492 40.368C47.2202 40.368 47.5722 40.731 47.8142 41.347H47.8582C48.1002 40.731 48.7602 40.368 49.4752 40.368C50.8832 40.368 51.6642 41.49 51.6642 43.14C51.6642 44.405 51.3892 45.252 50.8832 46H49.2882ZM57.7205 46C58.2485 45.153 58.5345 44.273 58.5345 43.206C58.5345 42.029 58.2375 41.523 57.6545 41.523C57.2035 41.523 57.0055 41.974 57.0055 42.645V44.537H55.5535V42.645C55.5535 41.93 55.3665 41.523 54.9265 41.523C54.3545 41.523 54.0575 42.04 54.0575 43.195C54.0575 44.229 54.3545 45.175 54.8605 46H53.2765C52.8035 45.296 52.4955 44.438 52.4955 43.129C52.4955 41.358 53.2765 40.346 54.6625 40.346C55.4655 40.346 55.9825 40.654 56.2465 41.358H56.2905C56.5655 40.654 57.1705 40.346 57.9185 40.346C59.3265 40.346 60.0965 41.446 60.0965 43.14C60.0965 44.405 59.8215 45.252 59.3155 46H57.7205ZM65.8121 48.354C64.0851 48.354 62.8971 47.694 62.8311 46.297H64.3931C64.5911 47.012 65.1301 47.199 65.8891 47.199C66.7141 47.199 67.4291 46.858 67.4291 46.044C67.4291 45.461 67.2311 45.01 66.6151 45.01H66.4391V43.811H66.7581C67.3851 43.8 67.5941 43.36 67.5941 42.7C67.5941 42.051 67.3081 41.49 66.7471 41.49C66.2301 41.49 65.9441 41.875 65.9441 42.469V42.953C65.9441 44.504 65.0201 45.505 63.4581 45.505C61.8961 45.505 60.9281 44.482 60.9281 42.953C60.9281 41.435 61.8411 40.346 63.3591 40.346C64.2171 40.346 64.8771 40.665 65.2291 41.325H65.2731C65.5811 40.665 66.2191 40.346 66.9891 40.346C68.3311 40.346 69.1341 41.347 69.1341 42.601C69.1341 43.536 68.6721 44.185 68.0121 44.427V44.471C68.7491 44.801 68.9911 45.362 68.9911 46.143C68.9911 47.496 67.8911 48.354 65.8121 48.354ZM63.4581 44.394C64.2391 44.394 64.5581 43.734 64.5581 42.942C64.5581 42.128 64.2281 41.457 63.4581 41.457C62.6661 41.457 62.3581 42.117 62.3581 42.942C62.3581 43.745 62.6881 44.394 63.4581 44.394ZM73.2181 46C73.5811 45.208 73.8231 44.482 73.8231 43.327C73.8231 42.381 73.5591 41.523 72.6791 41.523C71.8101 41.523 71.5461 42.381 71.5461 43.327C71.5461 44.482 71.7881 45.208 72.1511 46H70.6221C70.2151 45.23 69.9731 44.493 69.9731 43.272C69.9731 41.6 70.9191 40.346 72.6791 40.346C74.4501 40.346 75.3961 41.6 75.3961 43.272C75.3961 44.493 75.1431 45.23 74.7471 46H73.2181ZM82.3187 48.2C82.1977 47.507 81.4827 47.166 80.2617 47.166H77.0717V46.077H78.0067L78.0177 46.033C76.8297 45.527 76.2577 44.405 76.2577 43.173C76.2577 41.358 77.0497 40.346 78.4467 40.346C79.1727 40.346 79.7227 40.654 79.9977 41.358H80.0417C80.2507 40.654 80.8007 40.346 81.4277 40.346C82.1757 40.346 82.6047 40.654 82.8137 41.358H82.8577C83.1547 40.654 83.7597 40.346 84.3977 40.346C85.8497 40.346 86.6307 41.358 86.6307 43.14C86.6307 44.064 86.4767 44.812 86.1687 45.505H84.5847C84.9147 44.823 85.0577 44.086 85.0577 43.206C85.0577 42.029 84.7717 41.523 84.2437 41.523C83.8037 41.523 83.5837 41.941 83.5837 42.601V44.537H82.1207V42.612C82.1207 41.93 81.9667 41.523 81.4497 41.523C80.9217 41.523 80.7677 41.974 80.7677 42.601V44.537H79.2937V42.623C79.2937 41.908 79.0737 41.523 78.6337 41.523C78.0507 41.523 77.8197 42.084 77.8197 43.195C77.8197 44.867 78.7877 45.725 80.0087 45.934C80.4817 46.011 81.5487 46.11 82.0217 46.231C83.3087 46.572 83.9687 47.166 84.0237 48.2H82.3187ZM90.7386 46C91.1016 45.208 91.3436 44.482 91.3436 43.327C91.3436 42.381 91.0796 41.523 90.1996 41.523C89.3306 41.523 89.0666 42.381 89.0666 43.327C89.0666 44.482 89.3086 45.208 89.6716 46H88.1426C87.7356 45.23 87.4936 44.493 87.4936 43.272C87.4936 41.6 88.4396 40.346 90.1996 40.346C91.9706 40.346 92.9166 41.6 92.9166 43.272C92.9166 44.493 92.6636 45.23 92.2676 46H90.7386Z" fill="#64748B"/>
</svg>
