<svg width="40" height="40" viewBox="0 0 40 40" fill="none" xmlns="http://www.w3.org/2000/svg">
<rect width="40" height="40" rx="15" fill="#F4F6F9"/>
<path d="M20 25.6C20.1582 25.6 20.3129 25.5531 20.4445 25.4652C20.576 25.3773 20.6786 25.2523 20.7391 25.1061C20.7997 24.9599 20.8155 24.7991 20.7846 24.6439C20.7538 24.4887 20.6776 24.3462 20.5657 24.2343C20.4538 24.1224 20.3113 24.0462 20.1561 24.0154C20.0009 23.9845 19.84 24.0003 19.6939 24.0609C19.5477 24.1214 19.4227 24.224 19.3348 24.3555C19.2469 24.4871 19.2 24.6418 19.2 24.8C19.2 25.0122 19.2843 25.2156 19.4343 25.3657C19.5843 25.5157 19.7878 25.6 20 25.6ZM24 25.6C24.1582 25.6 24.3129 25.5531 24.4445 25.4652C24.576 25.3773 24.6786 25.2523 24.7391 25.1061C24.7997 24.9599 24.8155 24.7991 24.7846 24.6439C24.7538 24.4887 24.6776 24.3462 24.5657 24.2343C24.4538 24.1224 24.3113 24.0462 24.1561 24.0154C24.0009 23.9845 23.84 24.0003 23.6939 24.0609C23.5477 24.1214 23.4227 24.224 23.3348 24.3555C23.2469 24.4871 23.2 24.6418 23.2 24.8C23.2 25.0122 23.2843 25.2156 23.4343 25.3657C23.5843 25.5157 23.7878 25.6 24 25.6ZM24 22.4C24.1582 22.4 24.3129 22.3531 24.4445 22.2652C24.576 22.1773 24.6786 22.0523 24.7391 21.9061C24.7997 21.7599 24.8155 21.5991 24.7846 21.4439C24.7538 21.2887 24.6776 21.1462 24.5657 21.0343C24.4538 20.9224 24.3113 20.8462 24.1561 20.8154C24.0009 20.7845 23.84 20.8003 23.6939 20.8609C23.5477 20.9214 23.4227 21.024 23.3348 21.1555C23.2469 21.2871 23.2 21.4418 23.2 21.6C23.2 21.8122 23.2843 22.0156 23.4343 22.1657C23.5843 22.3157 23.7878 22.4 24 22.4ZM20 22.4C20.1582 22.4 20.3129 22.3531 20.4445 22.2652C20.576 22.1773 20.6786 22.0523 20.7391 21.9061C20.7997 21.7599 20.8155 21.5991 20.7846 21.4439C20.7538 21.2887 20.6776 21.1462 20.5657 21.0343C20.4538 20.9224 20.3113 20.8462 20.1561 20.8154C20.0009 20.7845 19.84 20.8003 19.6939 20.8609C19.5477 20.9214 19.4227 21.024 19.3348 21.1555C19.2469 21.2871 19.2 21.4418 19.2 21.6C19.2 21.8122 19.2843 22.0156 19.4343 22.1657C19.5843 22.3157 19.7878 22.4 20 22.4ZM25.6 12.8H24.8V12C24.8 11.7878 24.7157 11.5843 24.5657 11.4343C24.4157 11.2843 24.2122 11.2 24 11.2C23.7878 11.2 23.5843 11.2843 23.4343 11.4343C23.2843 11.5843 23.2 11.7878 23.2 12V12.8H16.8V12C16.8 11.7878 16.7157 11.5843 16.5657 11.4343C16.4157 11.2843 16.2122 11.2 16 11.2C15.7878 11.2 15.5843 11.2843 15.4343 11.4343C15.2843 11.5843 15.2 11.7878 15.2 12V12.8H14.4C13.7635 12.8 13.153 13.0528 12.7029 13.5029C12.2529 13.953 12 14.5635 12 15.2V26.4C12 27.0365 12.2529 27.647 12.7029 28.097C13.153 28.5471 13.7635 28.8 14.4 28.8H25.6C26.2365 28.8 26.847 28.5471 27.2971 28.097C27.7471 27.647 28 27.0365 28 26.4V15.2C28 14.5635 27.7471 13.953 27.2971 13.5029C26.847 13.0528 26.2365 12.8 25.6 12.8ZM26.4 26.4C26.4 26.6122 26.3157 26.8156 26.1657 26.9657C26.0157 27.1157 25.8122 27.2 25.6 27.2H14.4C14.1878 27.2 13.9843 27.1157 13.8343 26.9657C13.6843 26.8156 13.6 26.6122 13.6 26.4V19.2H26.4V26.4ZM26.4 17.6H13.6V15.2C13.6 14.9878 13.6843 14.7843 13.8343 14.6343C13.9843 14.4843 14.1878 14.4 14.4 14.4H15.2V15.2C15.2 15.4122 15.2843 15.6156 15.4343 15.7657C15.5843 15.9157 15.7878 16 16 16C16.2122 16 16.4157 15.9157 16.5657 15.7657C16.7157 15.6156 16.8 15.4122 16.8 15.2V14.4H23.2V15.2C23.2 15.4122 23.2843 15.6156 23.4343 15.7657C23.5843 15.9157 23.7878 16 24 16C24.2122 16 24.4157 15.9157 24.5657 15.7657C24.7157 15.6156 24.8 15.4122 24.8 15.2V14.4H25.6C25.8122 14.4 26.0157 14.4843 26.1657 14.6343C26.3157 14.7843 26.4 14.9878 26.4 15.2V17.6ZM16 22.4C16.1582 22.4 16.3129 22.3531 16.4445 22.2652C16.576 22.1773 16.6786 22.0523 16.7391 21.9061C16.7997 21.7599 16.8155 21.5991 16.7846 21.4439C16.7538 21.2887 16.6776 21.1462 16.5657 21.0343C16.4538 20.9224 16.3113 20.8462 16.1561 20.8154C16.0009 20.7845 15.84 20.8003 15.6939 20.8609C15.5477 20.9214 15.4227 21.024 15.3348 21.1555C15.2469 21.2871 15.2 21.4418 15.2 21.6C15.2 21.8122 15.2843 22.0156 15.4343 22.1657C15.5843 22.3157 15.7878 22.4 16 22.4ZM16 25.6C16.1582 25.6 16.3129 25.5531 16.4445 25.4652C16.576 25.3773 16.6786 25.2523 16.7391 25.1061C16.7997 24.9599 16.8155 24.7991 16.7846 24.6439C16.7538 24.4887 16.6776 24.3462 16.5657 24.2343C16.4538 24.1224 16.3113 24.0462 16.1561 24.0154C16.0009 23.9845 15.84 24.0003 15.6939 24.0609C15.5477 24.1214 15.4227 24.224 15.3348 24.3555C15.2469 24.4871 15.2 24.6418 15.2 24.8C15.2 25.0122 15.2843 25.2156 15.4343 25.3657C15.5843 25.5157 15.7878 25.6 16 25.6Z" fill="#09101D"/>
</svg>
