<svg width="20" height="20" viewBox="0 0 20 20" fill="none" xmlns="http://www.w3.org/2000/svg">
<path d="M10 15.6C10.1582 15.6 10.3129 15.5531 10.4445 15.4652C10.576 15.3773 10.6786 15.2523 10.7391 15.1061C10.7997 14.9599 10.8155 14.7991 10.7846 14.6439C10.7538 14.4887 10.6776 14.3462 10.5657 14.2343C10.4538 14.1224 10.3113 14.0462 10.1561 14.0154C10.0009 13.9845 9.84003 14.0003 9.69385 14.0609C9.54767 14.1214 9.42273 14.224 9.33482 14.3555C9.24692 14.4871 9.2 14.6418 9.2 14.8C9.2 15.0122 9.28429 15.2156 9.43431 15.3657C9.58434 15.5157 9.78783 15.6 10 15.6ZM14 15.6C14.1582 15.6 14.3129 15.5531 14.4445 15.4652C14.576 15.3773 14.6786 15.2523 14.7391 15.1061C14.7997 14.9599 14.8155 14.7991 14.7846 14.6439C14.7538 14.4887 14.6776 14.3462 14.5657 14.2343C14.4538 14.1224 14.3113 14.0462 14.1561 14.0154C14.0009 13.9845 13.84 14.0003 13.6939 14.0609C13.5477 14.1214 13.4227 14.224 13.3348 14.3555C13.2469 14.4871 13.2 14.6418 13.2 14.8C13.2 15.0122 13.2843 15.2156 13.4343 15.3657C13.5843 15.5157 13.7878 15.6 14 15.6ZM14 12.4C14.1582 12.4 14.3129 12.3531 14.4445 12.2652C14.576 12.1773 14.6786 12.0523 14.7391 11.9061C14.7997 11.7599 14.8155 11.5991 14.7846 11.4439C14.7538 11.2887 14.6776 11.1462 14.5657 11.0343C14.4538 10.9224 14.3113 10.8462 14.1561 10.8154C14.0009 10.7845 13.84 10.8003 13.6939 10.8609C13.5477 10.9214 13.4227 11.024 13.3348 11.1555C13.2469 11.2871 13.2 11.4418 13.2 11.6C13.2 11.8122 13.2843 12.0156 13.4343 12.1657C13.5843 12.3157 13.7878 12.4 14 12.4ZM10 12.4C10.1582 12.4 10.3129 12.3531 10.4445 12.2652C10.576 12.1773 10.6786 12.0523 10.7391 11.9061C10.7997 11.7599 10.8155 11.5991 10.7846 11.4439C10.7538 11.2887 10.6776 11.1462 10.5657 11.0343C10.4538 10.9224 10.3113 10.8462 10.1561 10.8154C10.0009 10.7845 9.84003 10.8003 9.69385 10.8609C9.54767 10.9214 9.42273 11.024 9.33482 11.1555C9.24692 11.2871 9.2 11.4418 9.2 11.6C9.2 11.8122 9.28429 12.0156 9.43431 12.1657C9.58434 12.3157 9.78783 12.4 10 12.4ZM15.6 2.79998H14.8V1.99998C14.8 1.78781 14.7157 1.58433 14.5657 1.4343C14.4157 1.28427 14.2122 1.19998 14 1.19998C13.7878 1.19998 13.5843 1.28427 13.4343 1.4343C13.2843 1.58433 13.2 1.78781 13.2 1.99998V2.79998H6.8V1.99998C6.8 1.78781 6.71571 1.58433 6.56569 1.4343C6.41566 1.28427 6.21217 1.19998 6 1.19998C5.78783 1.19998 5.58434 1.28427 5.43431 1.4343C5.28429 1.58433 5.2 1.78781 5.2 1.99998V2.79998H4.4C3.76348 2.79998 3.15303 3.05284 2.70294 3.50293C2.25286 3.95301 2 4.56346 2 5.19998V16.4C2 17.0365 2.25286 17.647 2.70294 18.097C3.15303 18.5471 3.76348 18.8 4.4 18.8H15.6C16.2365 18.8 16.847 18.5471 17.2971 18.097C17.7471 17.647 18 17.0365 18 16.4V5.19998C18 4.56346 17.7471 3.95301 17.2971 3.50293C16.847 3.05284 16.2365 2.79998 15.6 2.79998ZM16.4 16.4C16.4 16.6122 16.3157 16.8156 16.1657 16.9657C16.0157 17.1157 15.8122 17.2 15.6 17.2H4.4C4.18783 17.2 3.98434 17.1157 3.83431 16.9657C3.68429 16.8156 3.6 16.6122 3.6 16.4V9.19998H16.4V16.4ZM16.4 7.59998H3.6V5.19998C3.6 4.98781 3.68429 4.78433 3.83431 4.6343C3.98434 4.48427 4.18783 4.39998 4.4 4.39998H5.2V5.19998C5.2 5.41216 5.28429 5.61564 5.43431 5.76567C5.58434 5.9157 5.78783 5.99998 6 5.99998C6.21217 5.99998 6.41566 5.9157 6.56569 5.76567C6.71571 5.61564 6.8 5.41216 6.8 5.19998V4.39998H13.2V5.19998C13.2 5.41216 13.2843 5.61564 13.4343 5.76567C13.5843 5.9157 13.7878 5.99998 14 5.99998C14.2122 5.99998 14.4157 5.9157 14.5657 5.76567C14.7157 5.61564 14.8 5.41216 14.8 5.19998V4.39998H15.6C15.8122 4.39998 16.0157 4.48427 16.1657 4.6343C16.3157 4.78433 16.4 4.98781 16.4 5.19998V7.59998ZM6 12.4C6.15823 12.4 6.3129 12.3531 6.44446 12.2652C6.57602 12.1773 6.67855 12.0523 6.7391 11.9061C6.79965 11.7599 6.8155 11.5991 6.78463 11.4439C6.75376 11.2887 6.67757 11.1462 6.56569 11.0343C6.4538 10.9224 6.31126 10.8462 6.15607 10.8154C6.00089 10.7845 5.84003 10.8003 5.69385 10.8609C5.54767 10.9214 5.42273 11.024 5.33482 11.1555C5.24692 11.2871 5.2 11.4418 5.2 11.6C5.2 11.8122 5.28429 12.0156 5.43431 12.1657C5.58434 12.3157 5.78783 12.4 6 12.4ZM6 15.6C6.15823 15.6 6.3129 15.5531 6.44446 15.4652C6.57602 15.3773 6.67855 15.2523 6.7391 15.1061C6.79965 14.9599 6.8155 14.7991 6.78463 14.6439C6.75376 14.4887 6.67757 14.3462 6.56569 14.2343C6.4538 14.1224 6.31126 14.0462 6.15607 14.0154C6.00089 13.9845 5.84003 14.0003 5.69385 14.0609C5.54767 14.1214 5.42273 14.224 5.33482 14.3555C5.24692 14.4871 5.2 14.6418 5.2 14.8C5.2 15.0122 5.28429 15.2156 5.43431 15.3657C5.58434 15.5157 5.78783 15.6 6 15.6Z" fill="#09101D"/>
</svg>
